#!OML:ASF E:\motion texture\Top Level 1\Subject 1\Session 1\male.ASF
:FULLY-SPECIFIED
:DEGREES
159
root 10.5852 17.9325 4.08065 68.4536 -88.6975 -63.8675
lowerback -0.349543 -1.34953 -1.2983
upperback -1.92464 -1.80554 1.96937
thorax -1.67417 -0.876922 2.7683
lowerneck -13.7966 -2.43505 -5.07593
upperneck 20.7251 -2.3574 -0.413443
head 8.82481 -1.64821 0.415656
rclavicle -4.64038e-015 1.51076e-014
rhumerus -19.6391 -0.0569688 -84.5424
rradius 42.8387
rwrist 7.19328
rhand -12.4999 -19.5728
rfingers 7.12502
rthumb 13.5753 -49.1102
lclavicle -4.64038e-015 1.51076e-014
lhumerus -12.4157 -21.0903 94.4818
lradius 44.9898
lwrist -13.0705
lhand -12.9554 18.4399
lfingers 7.12502
lthumb 13.1361 48.0062
rfemur -32.9647 -4.09319 19.8473
rtibia 54.4127
rfoot -4.67907 -18.6589
rtoes 4.88953
lfemur -4.93671 -4.89483 -22.2158
ltibia 13.5204
lfoot -9.13722 -0.256203
ltoes 3.79324
160
root 10.4643 17.9253 4.08736 58.654 -88.6285 -54.0187
lowerback -0.34192 -1.43424 -1.43119
upperback -1.9007 -1.91895 2.03722
thorax -1.641 -0.931812 2.91349
lowerneck -13.7564 -2.4886 -5.09779
upperneck 20.5722 -2.42447 -0.420919
head 8.76714 -1.67791 0.410531
rclavicle -8.2185e-015 2.98177e-014
rhumerus -19.9298 -0.1617 -84.5219
rradius 42.7261
rwrist 7.12049
rhand -12.5555 -19.5081
rfingers 7.12502
rthumb 13.5216 -49.0491
lclavicle -8.2185e-015 2.98177e-014
lhumerus -11.954 -21.3176 94.202
lradius 45.6428
lwrist -12.8458
lhand -13.1215 18.3741
lfingers 7.12502
lthumb 12.976 47.9506
rfemur -33.3103 -4.0243 19.7679
rtibia 52.5358
rfoot -5.09113 -18.8207
rtoes 4.75607
lfemur -4.56297 -4.99616 -22.3568
ltibia 13.55
lfoot -9.48016 -0.348368
ltoes 3.62898
161
root 10.343 17.9174 4.09348 50.1342 -88.5371 -45.4287
lowerback -0.380339 -1.51366 -1.56155
upperback -1.86652 -2.02511 2.09309
thorax -1.57165 -0.983842 3.04315
lowerneck -13.7028 -2.54174 -5.11473
upperneck 20.405 -2.49685 -0.409762
head 8.70246 -1.70739 0.410643
rclavicle -3.83282e-015 -1.19271e-015
rhumerus -20.189 -0.329689 -84.4974
rradius 42.51
rwrist 7.07655
rhand -12.6066 -19.4519
rfingers 7.12502
rthumb 13.4724 -48.9961
lclavicle -3.83282e-015 -1.19271e-015
lhumerus -11.5013 -21.5038 93.9069
lradius 46.2359
lwrist -12.694
lhand -13.3766 18.252
lfingers 7.12502
lthumb 12.7301 47.8439
rfemur -33.6088 -3.9286 19.6699
rtibia 50.537
rfoot -5.41505 -18.985
rtoes 4.75463
lfemur -4.19824 -5.08852 -22.4984
ltibia 13.5574
lfoot -9.81181 -0.4464
ltoes 3.45348
162
root 10.2208 17.909 4.09898 43.0222 -88.4341 -38.2266
lowerback -0.437426 -1.58451 -1.69485
upperback -1.84392 -2.11971 2.14321
thorax -1.50393 -1.03017 3.16795
lowerneck -13.6206 -2.59289 -5.13162
upperneck 20.2393 -2.57229 -0.383037
head 8.63342 -1.73704 0.416055
rclavicle 1.26104e-014 9.54166e-015
rhumerus -20.4576 -0.550362 -84.458
rradius 42.196
rwrist 7.05501
rhand -12.6609 -19.45
rfingers 7.12502
rthumb 13.42 -48.9978
lclavicle 1.26104e-014 9.54166e-015
lhumerus -11.1122 -21.6358 93.6279
lradius 46.7801
lwrist -12.6155
lhand -13.6756 18.0843
lfingers 7.12502
lthumb 12.4419 47.6939
rfemur -33.8541 -3.7989 19.557
rtibia 48.4059
rfoot -5.60165 -19.1376
rtoes 4.86512
lfemur -3.84769 -5.15259 -22.6352
ltibia 13.5575
lfoot -10.1387 -0.559868
ltoes 3.23095
163
root 10.0976 17.9 4.10377 37.0024 -88.3266 -32.097
lowerback -0.517465 -1.65089 -1.83114
upperback -1.82283 -2.20807 2.18875
thorax -1.42481 -1.07367 3.28874
lowerneck -13.5466 -2.64178 -5.15385
upperneck 20.0853 -2.64684 -0.337852
head 8.5703 -1.76506 0.428543
rclavicle -1.0107e-014 2.38542e-014
rhumerus -20.7124 -0.814888 -84.4076
rradius 41.7755
rwrist 7.05528
rhand -12.7352 -19.5057
rfingers 7.12502
rthumb 13.3484 -49.0581
lclavicle -1.0107e-014 2.38542e-014
lhumerus -10.7386 -21.7072 93.3553
lradius 47.2517
lwrist -12.5872
lhand -13.9999 17.9155
lfingers 7.12502
lthumb 12.1292 47.5439
rfemur -34.0438 -3.6321 19.4263
rtibia 46.1465
rfoot -5.65365 -19.2644
rtoes 5.04254
lfemur -3.50869 -5.1916 -22.7678
ltibia 13.5468
lfoot -10.4584 -0.685325
ltoes 2.98027
164
root 9.97315 17.8905 4.10799 31.897 -88.2195 -26.8669
lowerback -0.592802 -1.71075 -1.96968
upperback -1.82565 -2.28769 2.23018
thorax -1.3731 -1.11233 3.40704
lowerneck -13.4503 -2.68796 -5.1782
upperneck 19.956 -2.72248 -0.279589
head 8.5119 -1.79344 0.445764
rclavicle -9.38636e-015 1.59028e-014
rhumerus -20.9984 -1.1204 -84.3417
rradius 41.2488
rwrist 7.08754
rhand -12.796 -19.6533
rfingers 7.12502
rthumb 13.2898 -49.2096
lclavicle -9.38636e-015 1.59028e-014
lhumerus -10.4447 -21.725 93.1104
lradius 47.6794
lwrist -12.5984
lhand -14.3199 17.7823
lfingers 7.12502
lthumb 11.8207 47.4287
rfemur -34.1691 -3.42385 19.28
rtibia 43.7574
rfoot -5.57386 -19.3547
rtoes 5.2482
lfemur -3.17274 -5.20357 -22.8955
ltibia 13.5229
lfoot -10.7671 -0.824503
ltoes 2.72109
